<svg xmlns="http://www.w3.org/2000/svg" width="806.418" height="1797.088" viewBox="0 0 806.418 1797.088">
  <g id="Group_295" data-name="Group 295" transform="translate(-945.455 -49.752)">
    <g id="Group_294" data-name="Group 294" transform="translate(945.455 49.752)">
      <path id="Path_46" data-name="Path 46" d="M1751.874,1213.924q0,142.652-83.619,241.033c-50.839,60.668-118.886,104.12-201.687,130.354a27.1,27.1,0,0,0-20.5,26.235V1794.37c0,29.514-22.94,52.469-51.642,52.469H1255.876c-27.868,0-51.642-22.955-51.642-51.649V1628.763c0-13.937-9.84-25.415-23.774-27.055-40.18-6.558-80.344-14.756-118.887-25.414-29.521-8.2-57.388-17.217-82.8-27.055-24.608-9.019-37.724-35.254-31.977-60.668l23.774-100.84c6.565-31.153,39.361-48.371,68.867-36.892a895.968,895.968,0,0,0,86.909,26.235c50.823,11.477,105.755,17.217,165.6,17.217,54.933,0,101.662-12.3,138.551-36.074,36.89-24.595,55.751-63.127,55.751-113.957,0-48.371-18.043-86.084-52.461-115.6-35.267-28.694-86.909-59.848-154.138-93.461A1139.178,1139.178,0,0,1,1137,958.135c-41-26.235-75.432-54.93-102.5-85.263a319.582,319.582,0,0,1-61.482-102.481c-13.934-36.892-20.484-80.344-20.484-129.534,0-95.1,25.4-170.527,76.235-225.456,45.911-49.191,104.134-83.624,173.8-102.481,13.115-3.279,21.318-13.937,21.318-27.055V102.222a52.318,52.318,0,0,1,52.476-52.47h137.732a52.305,52.305,0,0,1,52.461,52.47V267.83c0,14.757,10.659,26.234,25.412,27.875a627.892,627.892,0,0,1,99.206,20.5c27.065,8.2,53.295,18.036,77.888,27.874,23.774,10.658,37.708,35.253,31.978,59.848l-22.971,104.94a53.1,53.1,0,0,1-69.686,37.712,855.907,855.907,0,0,0-85.256-27.875c-45.092-10.658-90.184-16.4-136.1-16.4-112.321,0-168.891,42.632-168.891,128.715,0,21.316,4.109,39.353,13.131,55.749q12.281,23.366,36.889,44.272,23.357,20.905,59.026,41.811t83.619,44.271c31.977,17.217,67.229,36.892,106.59,59.029,40.164,21.315,77.053,48.37,112.321,80.344,35.251,31.153,63.938,68.047,87.712,109.858Q1751.9,1129.07,1751.874,1213.924Z" transform="translate(-945.456 -49.752)" fill="#fff"/>
    </g>
  </g>
</svg>
