<svg xmlns="http://www.w3.org/2000/svg" width="3295.332" height="2563.036" viewBox="0 0 3295.332 2563.036">
  <path id="credit-card-solid" d="M0,2320.425c0,151.607,123,274.611,274.611,274.611h2746.11c151.608,0,274.611-123,274.611-274.611V1313.518H0Zm1098.444-389.031a68.855,68.855,0,0,1,68.653-68.654h778.065a68.855,68.855,0,0,1,68.653,68.654v228.841a68.854,68.854,0,0,1-68.653,68.652H1167.1a68.854,68.854,0,0,1-68.653-68.652Zm-732.3,0A68.855,68.855,0,0,1,434.8,1862.74H846.717a68.855,68.855,0,0,1,68.653,68.654v228.841a68.854,68.854,0,0,1-68.653,68.652H434.8a68.854,68.854,0,0,1-68.653-68.652ZM3295.332,306.611V581.222H0V306.611C0,155,123,32,274.611,32h2746.11C3172.329,32,3295.332,155,3295.332,306.611Z" transform="translate(0 -32)" fill="#fff"/>
</svg>
