<svg xmlns="http://www.w3.org/2000/svg" width="2950.602" height="3934.136" viewBox="0 0 2950.602 3934.136">
  <path id="file-alt-solid" d="M1721.184,1045V0H184.413A183.97,183.97,0,0,0,0,184.413v3565.31a183.97,183.97,0,0,0,184.413,184.413H2766.189A183.97,183.97,0,0,0,2950.6,3749.723V1229.417h-1045C1804.17,1229.417,1721.184,1146.432,1721.184,1045ZM2212.951,2858.4c0,50.713-41.493,92.206-92.206,92.206H829.857c-50.714,0-92.206-41.493-92.206-92.206v-61.471c0-50.713,41.493-92.206,92.206-92.206H2120.745c50.714,0,92.206,41.493,92.206,92.206Zm0-491.767c0,50.714-41.493,92.206-92.206,92.206H829.857c-50.714,0-92.206-41.493-92.206-92.206v-61.471c0-50.713,41.493-92.206,92.206-92.206H2120.745c50.714,0,92.206,41.493,92.206,92.206Zm0-553.238v61.471c0,50.714-41.493,92.206-92.206,92.206H829.857c-50.714,0-92.206-41.493-92.206-92.206v-61.471c0-50.714,41.493-92.206,92.206-92.206H2120.745C2171.458,1721.184,2212.951,1762.677,2212.951,1813.391ZM2950.6,936.662v46.872H1967.068V0h46.872a184.275,184.275,0,0,1,130.626,53.787l752.25,753.018A183.824,183.824,0,0,1,2950.6,936.662Z" transform="translate(0 0)" fill="#fff"/>
</svg>
