<svg xmlns="http://www.w3.org/2000/svg" width="2754.677" height="2448.591" viewBox="0 0 2754.677 2448.591">
  <path id="file-signature-solid" d="M1043.377,2028.409c-14.108-28.312-38.69-31.181-48.637-31.181s-34.529,2.822-47.92,29.6l-36.681,73.362c-30.464,61.12-119.7,54.376-140.985-10L688.666,1848.83l-50.741,152.463a206.47,206.47,0,0,1-196.079,141.224H382.592a76.519,76.519,0,0,1,0-153.037h59.254a53.6,53.6,0,0,0,50.885-36.633l86.992-261.31a114.823,114.823,0,0,1,217.839,0l66.38,199.139c94.453-77.427,258.537-46.389,315.639,67.719a54.279,54.279,0,0,0,44.763,29.938V1595.6l612.148-607.8V765.185H1186.036c-63.128,0-114.778-51.65-114.778-114.778V0H114.778A114.5,114.5,0,0,0,0,114.778V2333.813a114.5,114.5,0,0,0,114.778,114.778H1721.666a114.5,114.5,0,0,0,114.778-114.778v-191.3l-612.148-.526C1147.2,2140.509,1078.05,2097.611,1043.377,2028.409ZM1836.443,582.975a114.411,114.411,0,0,0-33.477-80.823l-468.2-468.676A114.691,114.691,0,0,0,1253.468,0H1224.3V612.148h612.148ZM1377.333,1659.3V1989.48h329.938L2480.49,1211l-324.63-324.63ZM2718.989,800.24,2566.573,647.824a121.808,121.808,0,0,0-172.214,0L2264.038,778.145l324.629,324.63,130.321-130.321A121.722,121.722,0,0,0,2718.989,800.24Z" transform="translate(0 0)" fill="#fff"/>
</svg>
