<svg xmlns="http://www.w3.org/2000/svg" width="2276.442" height="1593.51" viewBox="0 0 2276.442 1593.51">
  <path id="money-check-solid" d="M0,1511.687a113.836,113.836,0,0,0,113.822,113.823h2048.8a113.836,113.836,0,0,0,113.822-113.823V373.466H0ZM1593.51,771.843a56.9,56.9,0,0,1,56.911-56.911h341.466a56.9,56.9,0,0,1,56.911,56.911V885.666a56.9,56.9,0,0,1-56.911,56.911H1650.42a56.9,56.9,0,0,1-56.911-56.911Zm0,426.833a28.447,28.447,0,0,1,28.455-28.455h398.377a28.448,28.448,0,0,1,28.456,28.455v56.911a28.448,28.448,0,0,1-28.456,28.456H1621.965a28.448,28.448,0,0,1-28.455-28.456ZM227.644,857.21A28.447,28.447,0,0,1,256.1,828.755H1337.41a28.447,28.447,0,0,1,28.456,28.456v56.911a28.448,28.448,0,0,1-28.456,28.456H256.1a28.448,28.448,0,0,1-28.456-28.456Zm0,341.466a28.448,28.448,0,0,1,28.456-28.455H882.121a28.447,28.447,0,0,1,28.456,28.455v56.911a28.448,28.448,0,0,1-28.456,28.456H256.1a28.448,28.448,0,0,1-28.456-28.456ZM2219.531,32H56.911A56.9,56.9,0,0,0,0,88.911V259.644H2276.442V88.911A56.9,56.9,0,0,0,2219.531,32Z" transform="translate(0 -32)" fill="#fff"/>
</svg>
