<svg xmlns="http://www.w3.org/2000/svg" width="1892.147" height="1596.61" viewBox="0 0 1892.147 1596.61">
  <path id="tasks-solid" d="M515.942,45.014a44.349,44.349,0,0,0-62.825,0L217.781,278.982l-83.89-81.746a44.346,44.346,0,0,0-62.825,0L13.044,255.331a44.348,44.348,0,0,0,0,62.826L188.918,493.328a47.231,47.231,0,0,0,65.08,0L311.612,435.6,578.435,168.817a44.68,44.68,0,0,0,.333-62.826Zm0,588.3a44.35,44.35,0,0,0-62.825,0L217.781,868.8l-83.89-81.673a44.349,44.349,0,0,0-62.825,0L13.044,845.112a44.347,44.347,0,0,0,0,62.825l175.43,175.541a47.192,47.192,0,0,0,65.043,0l58.021-57.984L578.361,758.6a44.348,44.348,0,0,0,.333-62.456ZM236.517,1273.8c-97.9,0-179.569,79.456-179.569,177.389s81.747,177.39,179.569,177.39a177.389,177.389,0,0,0,0-354.778Zm1596.5,59.13H768.684a59.129,59.129,0,0,0-59.13,59.129v118.26a59.13,59.13,0,0,0,59.13,59.13H1833.019a59.13,59.13,0,0,0,59.13-59.13v-118.26A59.129,59.129,0,0,0,1833.019,1332.933Zm0-1182.594H768.684a59.129,59.129,0,0,0-59.13,59.129v118.26a59.13,59.13,0,0,0,59.13,59.13H1833.019a59.13,59.13,0,0,0,59.13-59.13V209.468A59.13,59.13,0,0,0,1833.019,150.339Zm0,591.3H768.684a59.129,59.129,0,0,0-59.13,59.129v118.26a59.13,59.13,0,0,0,59.13,59.13H1833.019a59.13,59.13,0,0,0,59.13-59.13V800.765A59.129,59.129,0,0,0,1833.019,741.636Z" transform="translate(-0.001 -31.971)" fill="#fff"/>
</svg>
