<svg xmlns="http://www.w3.org/2000/svg" width="1814.516" height="2073.732" viewBox="0 0 1814.516 2073.732">
  <path id="user-solid" d="M907.258,1036.866c286.353,0,518.433-232.08,518.433-518.433S1193.611,0,907.258,0,388.825,232.08,388.825,518.433,620.9,1036.866,907.258,1036.866Zm362.9,129.608h-67.639a705.826,705.826,0,0,1-295.264,64.8c-105.307,0-204.943-23.492-295.264-64.8H544.355C243.826,1166.474,0,1410.3,0,1710.829V1879.32c0,107.332,87.081,194.412,194.412,194.412H1620.1c107.332,0,194.412-87.08,194.412-194.412V1710.829C1814.516,1410.3,1570.69,1166.474,1270.161,1166.474Z" transform="translate(0 0)" fill="#fff"/>
</svg>
