<svg xmlns="http://www.w3.org/2000/svg" width="3456.952" height="3832.94" viewBox="0 0 3456.952 3832.94">
  <defs>
    <style>
      .cls-1 {
        fill: #dbdbdc;
      }
    </style>
  </defs>
  <g id="Group_279" data-name="Group 279" transform="translate(-1210.986 120.04)">
    <g id="Group_272" data-name="Group 272" transform="translate(1473.745 -120.04)">
      <path id="Path_37" data-name="Path 37" class="cls-1" d="M2761.531-120.04c-828.706.005-1500.5,671.8-1500.488,1500.5s671.8,1500.493,1500.5,1500.488,1500.487-671.792,1500.487-1500.493c.132-828.564-671.45-1500.362-1500.02-1500.493ZM3147.3,1991.685a511.326,511.326,0,0,1-243.311,157.208,32.584,32.584,0,0,0-23.773,31.632V2401a62.318,62.318,0,0,1-61.347,63.258c-.336.005-.651.005-.971.005H2651.409a62.788,62.788,0,0,1-62.319-62.308V2201.222a32.341,32.341,0,0,0-28.771-32.582,1370.216,1370.216,0,0,1-142.694-30.682c-35.679-9.989-69.211-20.692-99.887-32.582a62.545,62.545,0,0,1-38.523-73.252l28.771-121.771a61.606,61.606,0,0,1,83.005-44.471,1086.629,1086.629,0,0,0,104.879,31.626,903.81,903.81,0,0,0,199.784,20.7,304.233,304.233,0,0,0,166.489-43.526,154.812,154.812,0,0,0,67.31-137.466,174.325,174.325,0,0,0-63.263-139.371,1041.745,1041.745,0,0,0-185.979-112.732,1378.531,1378.531,0,0,1-172.194-92.995,594.7,594.7,0,0,1-123.676-102.984,385.541,385.541,0,0,1-74.208-123.676,442.956,442.956,0,0,1-23.779-156.253,385.573,385.573,0,0,1,92.05-272.082,436.934,436.934,0,0,1,209.774-123.676,32.815,32.815,0,0,0,25.679-32.582V359.2a63.02,63.02,0,0,1,62.78-63.263H2843.6a63.023,63.023,0,0,1,63.263,62.791V558.98a33.537,33.537,0,0,0,30.687,33.537A757.221,757.221,0,0,1,3056.468,616.3c32.592,9.994,64.224,21.879,95.142,33.537a64.227,64.227,0,0,1,38.523,71.352l-27.6,126.527a64.235,64.235,0,0,1-84.191,45.427A1032.729,1032.729,0,0,0,2975.6,859.607a710.444,710.444,0,0,0-164.106-19.742c-135.565,0-203.821,51.374-203.821,155.308a136.1,136.1,0,0,0,15.69,67.31,183.589,183.589,0,0,0,44.482,53.51,439.014,439.014,0,0,0,71.347,50.424q43.046,25.212,100.842,53.516c38.524,20.692,81.1,44.471,128.674,71.347a668.134,668.134,0,0,1,135.565,97.042,511.5,511.5,0,0,1,105.84,132.474,363.909,363.909,0,0,1,41.615,178.137A433.538,433.538,0,0,1,3147.3,1991.685Z" transform="translate(-1261.043 120.04)"/>
    </g>
    <path id="Path_40" data-name="Path 40" class="cls-1" d="M4477.718,1308.435H1401.207c-104.984,0-190.22-85.236-190.22-190.22V636.044c0-104.979,85.236-190.22,190.22-190.22s190.221,85.241,190.221,190.22v291.95H4287.5V636.044c0-104.979,85.237-190.22,190.221-190.22s190.22,85.241,190.22,190.22v482.17C4667.938,1223.2,4582.7,1308.435,4477.718,1308.435Z" transform="translate(0 2404.466)"/>
  </g>
</svg>
