<svg xmlns="http://www.w3.org/2000/svg" width="2859.641" height="2045.793" viewBox="0 0 2859.641 2045.793">
  <defs>
    <style>
      .cls-1 {
        fill: #dcdcdd;
      }
    </style>
  </defs>
  <path id="Path_26" data-name="Path 26" class="cls-1" d="M3393.953,884.488c53.773-30.213,89.422-85.2,89.422-146.822V415.027c0-146.212-107.535-204.216-240.455-204.216H863.6c-132.307,0-239.865,58-239.865,204.216V753.979c0,50.754,27.8,97.88,74.337,119.025,129.267,58,219.9,197.572,219.9,360.7,0,163.736-90.635,303.3-219.9,361.308-46.537,20.541-74.337,68.277-74.337,119.028v277.926c0,146.215,107.558,264.636,239.865,264.636H3242.92c132.919,0,240.455-118.421,240.455-264.636V1710.415c0-49.542-27.176-96.669-71.9-117.817-126.262-59.816-215.094-198.176-215.094-358.892C3196.383,1080.847,3276.742,947.925,3393.953,884.488ZM2289.518,1607.1c-37.486,44.708-87.63,76.73-148.651,96.068a19.99,19.99,0,0,0-15.119,19.33v134.734c0,21.754-16.9,38.668-38.031,38.668H1985.592a38.293,38.293,0,0,1-38.076-38.059V1735.183a19.7,19.7,0,0,0-17.5-19.934,835.892,835.892,0,0,1-87.63-18.732c-21.732-6.04-42.295-12.689-61.021-19.937-18.125-6.646-27.777-25.979-23.569-44.711l17.546-74.317a37.643,37.643,0,0,1,50.745-27.187,659.584,659.584,0,0,0,64.038,19.333c37.463,8.458,77.944,12.689,122.053,12.689,40.469,0,74.915-9.062,102.114-26.583,27.176-18.128,41.07-46.523,41.07-83.983,0-35.648-13.293-63.443-38.666-85.191-25.974-21.147-64.049-44.107-113.581-68.878a841.839,841.839,0,0,1-105.142-56.793c-30.216-19.336-55.588-40.483-75.516-62.836a235.177,235.177,0,0,1-45.3-75.525c-10.287-27.187-15.119-59.212-15.119-95.464,0-70.083,18.726-125.671,56.189-166.149,33.834-36.252,76.741-61.631,128.088-75.528,9.675-2.416,15.72-10.27,15.72-19.94V610.183a38.533,38.533,0,0,1,38.654-38.671H2102.2a38.55,38.55,0,0,1,38.666,38.671V732.228c0,10.874,7.849,19.336,18.726,20.544a462.621,462.621,0,0,1,73.112,15.1c19.928,6.042,39.267,13.293,57.392,20.543,17.524,7.854,27.8,25.979,23.569,44.1l-16.923,77.337a39.126,39.126,0,0,1-51.357,27.791,631.5,631.5,0,0,0-62.824-20.541,433.847,433.847,0,0,0-100.31-12.085c-82.764,0-124.458,31.418-124.458,94.858,0,15.712,3.028,29,9.675,41.084q9.068,17.226,27.187,32.629,17.217,15.406,43.5,30.814t61.622,32.623c23.569,12.689,49.543,27.19,78.545,43.5,29.615,15.712,56.813,35.651,82.764,59.212,26,22.959,47.138,50.149,64.662,80.963q25.384,46.221,25.373,108.755Q2351.117,1534.591,2289.518,1607.1Z" transform="translate(-623.734 -210.811)"/>
</svg>
