<svg xmlns="http://www.w3.org/2000/svg" width="859.474" height="969.429" viewBox="0 0 859.474 969.429">
  <defs>
    <style>
      .cls-1 {
        fill: #dcdcdd;
      }
    </style>
  </defs>
  <g id="Group_271" data-name="Group 271" transform="translate(-4590.439 -8879.217)">
    <path id="Path_34" data-name="Path 34" class="cls-1" d="M1547.427,388.2H1402.544a22.189,22.189,0,0,1-22.185-22.209V222.252a15.555,15.555,0,0,1,26.514-11.055L1558.4,361.565C1568.264,371.368,1561.319,388.2,1547.427,388.2Z" transform="translate(3845.322 8678.843)"/>
    <path id="Path_35" data-name="Path 35" class="cls-1" d="M2188.423,464.766H1963.751c-28.5,0-51.727-20.261-51.727-45.523V233.162c0-14.758-13.506-26.763-30.507-26.763h-443.1c-45.993,0-83.476,32.766-83.476,73.283v823.111c0,40.269,37.25,73.035,83.226,73.035h693.292c45.727,0,82.956-32.766,82.956-73.035V487.775C2214.411,475.018,2202.92,464.766,2188.423,464.766Zm-306.152,449.2c-15.5,18.505-36.242,31.762-61.487,39.764a8.264,8.264,0,0,0-6.228,8v55.776a15.756,15.756,0,0,1-15.756,16.008h-42.23a15.863,15.863,0,0,1-15.76-15.759V966.985a8.142,8.142,0,0,0-7.247-8.253,345.7,345.7,0,0,1-36.23-7.753c-9-2.5-17.49-5.254-25.246-8.257a15.818,15.818,0,0,1-9.74-18.505l7.241-30.764a15.578,15.578,0,0,1,21-11.257,274.01,274.01,0,0,0,26.482,8.006,228.579,228.579,0,0,0,50.5,5.252c16.742,0,30.984-3.755,42.226-11.007,11.268-7.5,17-19.259,17-34.764,0-14.755-5.49-26.261-15.988-35.267-10.759-8.754-26.5-18.257-46.989-28.511a346.164,346.164,0,0,1-43.473-23.509,149.938,149.938,0,0,1-31.25-26.013,97.113,97.113,0,0,1-18.748-31.264c-4.254-11.255-6.244-24.512-6.244-39.517,0-29.011,7.74-52.022,23.235-68.779,14-15.006,31.749-25.513,52.973-31.263a8.291,8.291,0,0,0,6.5-8.255V501.279a15.96,15.96,0,0,1,16-16.008H1804.8a15.942,15.942,0,0,1,15.983,16.008V551.8a8.454,8.454,0,0,0,7.767,8.5,191.768,191.768,0,0,1,30.231,6.252c8.232,2.5,16.242,5.505,23.738,8.5,7.257,3.25,11.506,10.757,9.755,18.259l-7,32.015a16.2,16.2,0,0,1-21.25,11.5,262.817,262.817,0,0,0-25.993-8.507,179.386,179.386,0,0,0-41.494-5c-34.242,0-51.477,13.006-51.477,39.268a34.3,34.3,0,0,0,4,17.008,46.03,46.03,0,0,0,11.246,13.506,111.469,111.469,0,0,0,17.994,12.756q10.876,6.38,25.489,13.506c9.75,5.254,20.486,11.255,32.485,18.007a168.61,168.61,0,0,1,34.237,24.51,129.461,129.461,0,0,1,26.746,33.516q10.5,19.132,10.493,45.021Q1907.76,883.949,1882.271,913.963Z" transform="translate(3235.501 8672.818)"/>
  </g>
</svg>
