<svg xmlns="http://www.w3.org/2000/svg" width="1463.062" height="1650.038" viewBox="0 0 1463.062 1650.038">
  <defs>
    <style>
      .cls-1 {
        fill: #dcdcdd;
      }
    </style>
  </defs>
  <path id="Path_32" data-name="Path 32" class="cls-1" d="M2526.32,203.149H1328.726c-73.165,0-132.742,60.84-132.742,135.715V1814.687c0,26.8,30.2,41.692,50.626,25.1l137.42-111.889a51.341,51.341,0,0,1,65.508,0l178.266,109.334a69.337,69.337,0,0,0,88.494,0L1894.541,1727.9a52.461,52.461,0,0,1,65.525,0l178.681,109.334a69.325,69.325,0,0,0,88.486,0L2405.076,1727.9a53.053,53.053,0,0,1,65.939,0L2609.3,1840.637c19.975,16.167,49.747,1.277,49.747-24.672V338.865C2659.045,263.989,2599.494,203.149,2526.32,203.149ZM1814.989,1270.133a15.984,15.984,0,0,1-15.753,15.745h-268a15.983,15.983,0,0,1-15.745-15.745v-81.682a15.98,15.98,0,0,1,15.745-15.742h268a15.981,15.981,0,0,1,15.753,15.742Zm524.57.425a15.182,15.182,0,0,1-14.9,15.319H2080.48a15.252,15.252,0,0,1-15.321-15.319v-82.53a15.253,15.253,0,0,1,15.321-15.319h244.181a15.184,15.184,0,0,1,14.9,15.319Zm0-353.957a25.793,25.793,0,0,1-25.939,25.952H1541.426a26.047,26.047,0,0,1-25.939-25.952V855.768a26.048,26.048,0,0,1,25.939-25.956H2313.62a25.794,25.794,0,0,1,25.939,25.956Zm0-337.368a25.792,25.792,0,0,1-25.939,25.95H1541.426a26.045,26.045,0,0,1-25.939-25.95V518.4a26.047,26.047,0,0,1,25.939-25.952H2313.62A25.793,25.793,0,0,1,2339.56,518.4Z" transform="translate(-1195.984 -203.149)"/>
</svg>
