<svg xmlns="http://www.w3.org/2000/svg" width="3044.859" height="2158.357" viewBox="0 0 3044.859 2158.357">
  <defs>
    <style>
      .cls-1 {
        fill: #dcdcdd;
      }
    </style>
  </defs>
  <path id="Path_33" data-name="Path 33" class="cls-1" d="M3233.88,209.811H715.253c-145.394,0-263.117,117.73-263.117,263.119V2105.047c0,145.391,117.723,263.121,263.117,263.121H3233.88c145.389,0,263.117-117.73,263.117-263.121V472.929C3497,327.541,3379.269,209.811,3233.88,209.811ZM1617.838,1682.382c-39.883,47.607-93.284,81.7-158.261,102.289a21.257,21.257,0,0,0-16.074,20.587v143.46c0,23.161-18.016,41.174-40.539,41.174H1294.252a40.778,40.778,0,0,1-40.539-40.531V1818.768a20.985,20.985,0,0,0-18.656-21.23,889.535,889.535,0,0,1-93.279-19.944c-23.163-6.434-45.031-13.508-64.978-21.227-19.306-7.079-29.587-27.666-25.094-47.607l18.661-79.128a40.1,40.1,0,0,1,54.036-28.952,702.782,702.782,0,0,0,68.2,20.587c39.883,9.005,82.993,13.51,129.95,13.51,43.095,0,79.771-9.651,108.723-28.309,28.947-19.3,43.74-49.531,43.74-89.419,0-37.959-14.148-67.551-41.169-90.712-27.661-22.515-68.2-46.959-120.94-73.334a895.712,895.712,0,0,1-111.95-60.475c-32.163-20.587-59.179-43.1-80.411-66.906a250.585,250.585,0,0,1-48.248-80.414c-10.941-28.952-16.084-63.046-16.084-101.649,0-74.625,19.941-133.812,59.824-176.912,36.031-38.6,81.707-65.623,136.389-80.419,10.3-2.571,16.725-10.936,16.725-21.23V620.894a41.046,41.046,0,0,1,41.174-41.169H1418.4a41.04,41.04,0,0,1,41.174,41.169V750.846c0,11.579,8.37,20.589,19.952,21.873a493.265,493.265,0,0,1,77.84,16.082c21.222,6.436,41.814,14.156,61.115,21.875,18.656,8.365,29.6,27.666,25.089,46.962l-18.015,82.345a41.672,41.672,0,0,1-54.682,29.594,671.078,671.078,0,0,0-66.909-21.872,461.68,461.68,0,0,0-106.792-12.867c-88.136,0-132.526,33.454-132.526,101,0,16.727,3.222,30.88,10.291,43.745q9.666,18.333,28.957,34.74,18.333,16.4,46.317,32.811t65.623,34.737c25.089,13.51,52.75,28.949,83.628,46.322,31.528,16.724,60.475,37.957,88.136,63.041,27.661,24.449,50.184,53.4,68.84,86.212q27.023,49.206,27.021,115.8Q1683.461,1605.184,1617.838,1682.382Zm813.169,29.595c0,10.293-9.01,19.3-19.947,19.3H2147.293a19.35,19.35,0,0,1-19.3-19.3V1580.093c0-10.934,8.36-19.941,19.3-19.941h263.767a20.047,20.047,0,0,1,19.947,19.941Zm588.639,0c0,10.293-9.005,19.3-19.3,19.3H2735.938a19.346,19.346,0,0,1-19.291-19.3V1580.093c0-10.934,8.354-19.941,19.291-19.941H3000.35c10.291,0,19.3,9.008,19.3,19.941Zm5.153-523.026a33.23,33.23,0,0,1-33.459,33.454H2161.452A33.226,33.226,0,0,1,2128,1188.951V1085.376a33.227,33.227,0,0,1,33.454-33.454H2991.34a33.232,33.232,0,0,1,33.459,33.454Z" transform="translate(-452.137 -209.811)"/>
</svg>
