<svg xmlns="http://www.w3.org/2000/svg" width="2394.627" height="2177.125" viewBox="0 0 2394.627 2177.125">
  <defs>
    <style>
      .cls-1 {
        fill: #dcdcdd;
      }
    </style>
  </defs>
  <g id="Group_273" data-name="Group 273" transform="translate(-3516.675 -8876.435)">
    <path id="Path_31" data-name="Path 31" class="cls-1" d="M2669.017,726.755l-162.409,614.794c-23.036,63.508-80.917,105.656-145,105.656H1166.3l55.636,212.425H2297.552a105.652,105.652,0,0,1,0,211.3H1140.446c-48.329,0-90.476-32.6-102.278-78.675L677.388,415.419H386.848c-57.89,0-105.654-47.766-105.654-106.206,0-57.89,47.764-105.654,105.654-105.654H759.434c47.768,0,89.911,32.591,102.276,79.235l77.564,297.287,1636.458,2.245C2645.974,582.327,2694.307,657.066,2669.017,726.755Z" transform="translate(3235.48 8672.875)"/>
    <circle id="Ellipse_29" data-name="Ellipse 29" class="cls-1" cx="185.682" cy="185.682" r="185.682" transform="translate(4302.44 10682.195)"/>
    <circle id="Ellipse_30" data-name="Ellipse 30" class="cls-1" cx="185.682" cy="185.682" r="185.682" transform="translate(5161.992 10682.195)"/>
  </g>
</svg>
