<svg xmlns="http://www.w3.org/2000/svg" width="2762.517" height="3203.12" viewBox="0 0 2762.517 3203.12">
  <defs>
    <style>
      .cls-1 {
        fill: #dcdcdd;
      }
    </style>
  </defs>
  <path id="Path_39" data-name="Path 39" class="cls-1" d="M2884.605,3189.939,2525.413,1324.744c-19.773-83.211-100.512-142.522-194.43-142.522h-193.6V833.731c0-347.662-282.58-630.243-629.419-630.243-347.667,0-630.245,282.58-630.245,630.243v348.491H647.859c-95.562,0-177.124,60.963-195.245,145.815L130.485,3192.414c-24.715,111.214,69.2,214.2,194.43,214.2H2690.181C2816.228,3406.609,2910.975,3301.158,2884.605,3189.939ZM1928.948,2052.2c-2.472,60.145-19.773,112.865-51.908,155.707-19.771,28.834-59.314,65.91-116.984,110.4l-56.844,44.488c-31.306,23.892-51.9,52.728-61.789,84.86-3.3,9.058-5.77,21.414-7.419,36.243-3.3,25.541,0,58.5-34.6,58.5H1451.115c-14.008,0-25.538-8.235-32.132-19.768a30.641,30.641,0,0,1-4.116-18.95,160.184,160.184,0,0,1,1.644-19.778c1.649-25.536,4.121-47.776,6.594-67.549,4.119-25.546,9.884-46.137,15.652-61.789,12.359-30.483,41.193-65.09,86.5-102.987,6.594-5.763,13.185-10.707,20.6-16.478l58.491-46.132A195.169,195.169,0,0,0,1651.31,2142c21.42-29.652,32.129-62.612,32.129-98.034,0-40.367-12.361-77.446-35.425-111.222-23.066-32.135-63.435-48.607-122.757-50.253h-8.238c-61.784,0-106.272,20.6-131.815,61.789a254.887,254.887,0,0,0-33.778,79.087c-6.588,28.836-31.306,50.256-60.963,50.256H1156.176c-13.182,0-25.541-7.412-32.955-17.3a40.835,40.835,0,0,1-6.588-26.359c1.646-14.005,3.293-27.19,6.588-39.546.823-4.121.823-7.417,1.646-10.707,11.536-58.5,32.958-108.752,62.615-149.942,7.414-11.538,16.48-21.42,25.538-31.306a23.388,23.388,0,0,1,8.237-7.417,135.04,135.04,0,0,1,20.6-17.3c.823-.826,1.646-.826,2.47-1.652,9.887-8.237,18.95-17.3,29.662-23.889,63.435-40.369,140.879-60.963,233.148-60.963a133.511,133.511,0,0,1,18.121.823q168.071,3.708,281.757,84.029c.828.826,1.649.826,2.472,1.652a101.925,101.925,0,0,1,18.127,14.828l2.47,2.47a33.42,33.42,0,0,1,8.238,7.417c53.551,49.43,83.211,114.515,89.8,196.076.828,11.528,1.649,23.889,1.649,37.074A172.888,172.888,0,0,1,1928.948,2052.2ZM1187.482,833.731c0-176.306,143.348-319.654,320.48-319.654,176.3,0,319.652,143.348,319.652,319.654v348.491H1187.482Zm440.76,2118.936c0,37.076-30.483,66.733-67.554,66.733h-106.28a66.454,66.454,0,0,1-66.731-66.733v-98.86a66.457,66.457,0,0,1,66.731-66.731h106.28c37.071,0,67.554,29.662,67.554,66.731Z" transform="translate(-126.518 -203.488)"/>
</svg>
