<svg xmlns="http://www.w3.org/2000/svg" width="1895.313" height="2036.649" viewBox="0 0 1895.313 2036.649">
  <defs>
    <style>
      .cls-1 {
        fill: #dcdcdd;
      }
    </style>
  </defs>
  <g id="Group_274" data-name="Group 274" transform="translate(-770.462 -10.414)">
    <path id="Path_27" data-name="Path 27" class="cls-1" d="M2687.964,331.81c-.509,23.12-8.518,46.241-21.781,63.673L2366.877,723.091c-87.575,95.87-204.453,149.573-326.157,149.853l-546.593,1.334c-43.62,0-84.508,24.234-109.355,64.9l-92.922,151.746c-8.24,13.538-21.885,21.613-36.421,21.613H837.137c-34.592,0-55.887-42.839-37.948-76.427l350.785-656.719a370.116,370.116,0,0,1,71.858-94.759c38.77-36.708,87.737-56.819,138.265-56.819h632.211c36.873,0,72.09,24.735,83.825,64.4,11.712,39.387,1.4,76.875-20.265,101.44-15.82,17.551-37.162,28.525-60.713,28.525H1658.9c-34.257,0-61.987,31.529-61.987,70.412,0,37.934,27.128,68.626,60.6,68.574l421.532-5.96c133.972-.894,209.221-76.488,314.121-171.021l131.472-118.429c45.564-41.059,136.819-37.1,159.144,34.647A97.986,97.986,0,0,1,2687.964,331.81Z" transform="translate(-22.223 934.53)"/>
    <path id="Path_28" data-name="Path 28" class="cls-1" d="M2389.034,678.925l-49.128,42.095a42.6,42.6,0,0,1-61.292-6.05L2094.875,505.722a3.353,3.353,0,0,0-5.844,2.381V986.117c0,54.617-42.775,98.934-95.052,98.934H1203.857c-52.485,0-95.063-44.062-95.063-98.416V508.674a3.381,3.381,0,0,0-5.89-2.329L918.632,718.277c-13.7,17.481-38.527,19.651-55.436,5.434L808.27,676.7c-16.4-14.169-19.026-40.44-5.278-57.354l322.144-370.084,1.608-2.167c17.429-25.137,45.4-41.534,77.113-41.534h790.122c34.338,0,63.919,18.569,80.261,47.014l.521-.57,319.551,364.034C2409.635,635.169,2406.973,663.614,2389.034,678.925Z" transform="translate(160.909 -195.145)"/>
  </g>
</svg>
