<svg xmlns="http://www.w3.org/2000/svg" width="1220.535" height="1171.41" viewBox="0 0 1220.535 1171.41">
  <defs>
    <style>
      .cls-1 {
        fill: #dcdcdd;
      }
    </style>
  </defs>
  <g id="Group_279" data-name="Group 279" transform="translate(-488.844 -628.532)">
    <path id="Path_40" data-name="Path 40" class="cls-1" d="M1709.361,797.87a66.9,66.9,0,0,1-14.047,39.291l-192.753,202.2c-56.389,59.155-131.654,92.291-210.023,92.469l-351.977.809c-28.106,0-54.427,14.969-70.448,40.059l-59.8,93.653A27.992,27.992,0,0,1,786.83,1279.7H517.474c-22.271,0-35.991-26.458-24.448-47.165l225.9-405.31a229.906,229.906,0,0,1,46.268-58.477c24.989-22.646,56.5-35.052,89.032-35.052h407.124a56.6,56.6,0,0,1,54,39.755c7.523,24.276.886,47.41-13.071,62.58-10.181,10.841-23.9,17.621-39.078,17.621H1046.678c-22.069,0-39.958,19.441-39.958,43.425,0,23.414,17.484,42.384,39.03,42.343l271.456-3.675c86.273-.553,134.735-47.2,202.287-105.535l84.685-73.118c29.313-25.317,88.1-22.884,102.46,21.4A58.406,58.406,0,0,1,1709.361,797.87Z" transform="translate(0 520.242)"/>
    <rect id="Rectangle_189" data-name="Rectangle 189" class="cls-1" width="530.924" height="385.37" rx="5.77" transform="translate(930.498 628.532)"/>
  </g>
</svg>
