<svg xmlns="http://www.w3.org/2000/svg" width="2615.995" height="2959.454" viewBox="0 0 2615.995 2959.454">
  <defs>
    <style>
      .cls-1 {
        fill: #dcdcdd;
      }
    </style>
  </defs>
  <path id="Path_30" data-name="Path 30" class="cls-1" d="M2366.7,203.4h0c166.735,0,303.174,139.92,303.174,310.917v579.8a50.259,50.259,0,0,0,24.245,43.167l954.2,575.241a54.353,54.353,0,0,1,26.412,46.825V2079.99c0,35.953-33.583,61.944-67.325,51.989l-906.293-220.7c-15.649-4.636-31.241,7.443-31.241,24.089v631.792a55.2,55.2,0,0,0,22.747,44.756l290.462,218.044a71.694,71.694,0,0,1,29.467,58.137v203.685c0,46.356-42.527,80.255-86.422,68.856L2482.475,2986.52a216.232,216.232,0,0,0-155.434-1.065l-465.415,175.026c-44.011,11.555-86.814-22.573-86.814-69.078V2888.325a71.871,71.871,0,0,1,29.656-58.439L2042.5,2645.893a54.633,54.633,0,0,0,22.5-44.313V1927.762c0-16.562-15.5-28.5-31.023-23.933L1126.067,2137.3c-33.743,9.956-67.325-15.966-67.325-51.905V1764.747a54.3,54.3,0,0,1,26.485-46.894l955.686-590.589A49.568,49.568,0,0,0,2065,1084.547V512.881C2065,342.64,2200.725,203.4,2366.7,203.4Z" transform="translate(-1058.742 -203.405)"/>
</svg>
